<svg width="426.12998046875px" height="122.021240234375px" xmlns="http://www.w3.org/2000/svg" viewBox="36.93500976562501 13.9893798828125 426.12998046875 122.021240234375" style="background: rgba(0, 0, 0, 0);" preserveAspectRatio="xMidYMid"><defs><filter id="editing-vr"><feFlood flood-color="#f00" flood-opacity="0.7" result="c1"></feFlood><feFlood flood-color="#00f" flood-opacity="0.7" result="c3"></feFlood><feComposite operator="in" in="c1" in2="SourceAlpha" result="text-c1"></feComposite><feComposite operator="in" in="c3" in2="SourceAlpha" result="text-c3"></feComposite><feOffset in="text-c1" dx="5" dy="-1" result="text1"></feOffset><feOffset in="text-c3" dx="-5" dy="1" result="text3"></feOffset><feBlend in="SourceGraphic" in2="text1" mode="multiply" result="text4"></feBlend><feBlend in="text4" in2="text3" mode="multiply"></feBlend></filter></defs><g filter="url(#editing-vr)"><g transform="translate(101.73999208211899, 98.9921875)"><path d="M27.84-9.86L27.84-9.86L27.84-9.86Q29.06-8.32 29.06-5.34L29.06-5.34L29.06-5.34Q29.06-2.37 26.78-0.54L26.78-0.54L26.78-0.54Q24.51 1.28 20.54 1.28L20.54 1.28L20.54 1.28Q18.24 1.28 14.66 0.77L14.66 0.77L14.66 0.77Q7.62-0.32 5.60-0.32L5.60-0.32L5.60-0.32Q3.58-0.32 2.75-0.22L2.75-0.22L2.75-0.22Q1.92-0.13 0.58 0L0.58 0L8.32-42.24L22.34-42.24L15.94-7.04L15.94-7.04Q16.77-6.91 17.54-6.91L17.54-6.91L19.14-6.91L19.14-6.91Q24.51-6.91 27.84-9.86ZM59.26-10.82L59.26-10.82L59.26-10.82Q60.86-9.73 60.86-7.33L60.86-7.33L60.86-7.33Q60.86-4.93 59.65-3.39L59.65-3.39L59.65-3.39Q58.43-1.86 56.45-0.83L56.45-0.83L56.45-0.83Q52.35 1.28 47.94 1.28L47.94 1.28L47.94 1.28Q43.52 1.28 40.93 0.32L40.93 0.32L40.93 0.32Q38.34-0.64 36.61-2.43L36.61-2.43L36.61-2.43Q33.22-5.82 33.22-12.03L33.22-12.03L33.22-12.03Q33.22-21.70 38.46-27.58L38.46-27.58L38.46-27.58Q44.10-33.92 53.89-33.92L53.89-33.92L53.89-33.92Q59.97-33.92 62.98-31.36L62.98-31.36L62.98-31.36Q65.22-29.44 65.22-26.30L65.22-26.30L65.22-26.30Q65.22-15.04 45.76-15.04L45.76-15.04L45.76-15.04Q45.50-13.38 45.50-11.97L45.50-11.97L45.50-11.97Q45.50-9.02 46.82-7.90L46.82-7.90L46.82-7.90Q48.13-6.78 50.56-6.78L50.56-6.78L50.56-6.78Q52.99-6.78 55.58-7.90L55.58-7.90L55.58-7.90Q58.18-9.02 59.26-10.82ZM46.21-17.79L46.21-17.79L46.21-17.79Q50.75-17.79 53.38-20.61L53.38-20.61L53.38-20.61Q56-23.30 56-27.58L56-27.58L56-27.58Q56-29.06 55.46-29.86L55.46-29.86L55.46-29.86Q54.91-30.66 53.82-30.66L53.82-30.66L53.82-30.66Q52.74-30.66 51.81-30.24L51.81-30.24L51.81-30.24Q50.88-29.82 49.92-28.42L49.92-28.42L49.92-28.42Q47.55-25.22 46.21-17.79ZM68.42-6.40L68.42-6.40L68.42-6.40Q68.42-8.13 69.31-12.48L69.31-12.48L72.70-29.76L68.93-29.76L69.18-31.68L69.18-31.68Q76.86-33.98 84.29-39.62L84.29-39.62L87.36-39.62L85.82-32.64L90.82-32.64L90.24-29.76L85.31-29.76L82.05-12.48L82.05-12.48Q81.22-8.51 81.22-7.17L81.22-7.17L81.22-7.17Q81.22-4.10 83.90-3.46L83.90-3.46L83.90-3.46Q83.26-1.28 80.96 0L80.96 0L80.96 0Q78.66 1.28 75.39 1.28L75.39 1.28L75.39 1.28Q72.13 1.28 70.27-0.77L70.27-0.77L70.27-0.77Q68.42-2.82 68.42-6.40ZM100.42-29.50L93.63-29.50L93.63-29.50Q96-37.70 96.13-46.34L96.13-46.34L97.98-46.59L97.98-46.59Q98.94-46.72 99.65-46.72L99.65-46.72L99.65-46.72Q102.46-46.72 104-45.34L104-45.34L104-45.34Q105.54-43.97 105.54-41.54L105.54-41.54L105.54-41.54Q105.54-38.98 104.38-36.16L104.38-36.16L104.38-36.16Q102.34-31.17 100.42-29.50L100.42-29.50ZM123.90-22.46L123.90-22.46L123.90-22.46Q124.80-24.83 124.80-26.88L124.80-26.88L124.80-26.88Q124.80-30.66 121.73-30.66L121.73-30.66L121.73-30.66Q120.13-30.66 118.82-29.22L118.82-29.22L118.82-29.22Q117.50-27.78 117.50-25.98L117.50-25.98L117.50-25.98Q117.50-24.70 118.53-23.68L118.53-23.68L118.53-23.68Q120-22.27 123.78-19.97L123.78-19.97L123.78-19.97Q127.55-17.66 128.99-15.78L128.99-15.78L128.99-15.78Q130.43-13.89 130.43-11.30L130.43-11.30L130.43-11.30Q130.43-8.70 129.18-6.34L129.18-6.34L129.18-6.34Q127.94-3.97 125.70-2.30L125.70-2.30L125.70-2.30Q120.90 1.28 113.22 1.28L113.22 1.28L113.22 1.28Q109.06 1.28 105.86-0.90L105.86-0.90L105.86-0.90Q102.66-3.01 102.66-5.50L102.66-5.50L102.66-5.50Q102.66-8 104.48-9.47L104.48-9.47L104.48-9.47Q106.30-10.94 108.99-10.94L108.99-10.94L108.99-10.94Q111.68-10.94 113.34-9.92L113.34-9.92L113.34-9.92Q112.51-7.81 112.51-6.40L112.51-6.40L112.51-6.40Q112.51-2.18 116.10-2.18L116.10-2.18L116.10-2.18Q117.63-2.18 118.66-3.14L118.66-3.14L118.66-3.14Q119.68-4.10 119.68-5.76L119.68-5.76L119.68-5.76Q119.68-9.02 114.18-12.48L114.18-12.48L114.18-12.48Q109.70-15.42 108.67-16.58L108.67-16.58L108.67-16.58Q106.94-18.62 106.94-21.18L106.94-21.18L106.94-21.18Q106.94-23.74 108.16-26.18L108.16-26.18L108.16-26.18Q109.38-28.61 111.62-30.34L111.62-30.34L111.62-30.34Q116.29-33.92 124.42-33.92L124.42-33.92L124.42-33.92Q128.58-33.92 131.04-32.26L131.04-32.26L131.04-32.26Q133.50-30.59 133.50-27.78L133.50-27.78L133.50-27.78Q133.50-24.96 131.81-23.36L131.81-23.36L131.81-23.36Q130.11-21.76 127.04-21.76L127.04-21.76L127.04-21.76Q124.93-21.76 123.90-22.46ZM154.18-31.17L154.18-31.17L154.18-31.17Q152-32.83 152-36.38L152-36.38L152-36.38Q152-39.94 154.34-41.79L154.34-41.79L154.34-41.79Q156.67-43.65 160.70-43.65L160.70-43.65L160.70-43.65Q163.26-43.65 169.34-42.75L169.34-42.75L173.70-42.11L173.70-42.11Q175.87-41.86 178.14-41.86L178.14-41.86L178.14-41.86Q180.42-41.86 181.95-42.82L181.95-42.82L181.95-42.82Q184.26-40.77 184.26-37.82L184.26-37.82L184.26-37.82Q184.26-34.88 181.63-32.77L181.63-32.77L181.63-32.77Q178.94-30.53 175.49-30.53L175.49-30.53L175.49-30.53Q173.82-30.53 171.14-30.98L171.14-30.98L171.14-30.98Q168-21.12 168-14.27L168-14.27L168-14.27Q168-7.42 171.46-3.84L171.46-3.84L171.46-3.84Q169.86-0.96 167.49 0.16L167.49 0.16L167.49 0.16Q165.12 1.28 161.57 1.28L161.57 1.28L161.57 1.28Q158.02 1.28 155.81-0.67L155.81-0.67L155.81-0.67Q153.60-2.62 153.60-6.66L153.60-6.66L153.60-6.66Q153.60-11.33 156.16-19.01L156.16-19.01L156.16-19.01Q158.72-26.62 162.56-32.45L162.56-32.45L162.56-32.45Q160.70-32.64 158.78-32.64L158.78-32.64L158.78-32.64Q154.82-32.64 154.18-31.17ZM193.22 1.28L193.22 1.28L193.22 1.28Q179.14 1.28 179.14-11.97L179.14-11.97L179.14-11.97Q179.14-21.38 184.32-27.46L184.32-27.46L184.32-27.46Q189.82-33.92 199.36-33.92L199.36-33.92L199.36-33.92Q206.27-33.92 209.79-30.72L209.79-30.72L209.79-30.72Q213.31-27.52 213.31-20.80L213.31-20.80L213.31-20.80Q213.31-10.56 207.81-4.61L207.81-4.61L207.81-4.61Q202.43 1.28 193.22 1.28ZM194.88-26.56L194.88-26.56L194.88-26.56Q194.11-24.83 193.50-22.24L193.50-22.24L193.50-22.24Q192.90-19.65 192.13-15.55L192.13-15.55L192.13-15.55Q191.36-11.46 191.36-6.40L191.36-6.40L191.36-6.40Q191.36-4.74 191.90-3.65L191.90-3.65L191.90-3.65Q192.45-2.56 193.92-2.56L193.92-2.56L193.92-2.56Q195.39-2.56 196.32-3.26L196.32-3.26L196.32-3.26Q197.25-3.97 197.95-5.63L197.95-5.63L197.95-5.63Q199.23-8.58 200.26-14.05L200.26-14.05L200.26-14.05Q201.28-19.52 201.38-21.89L201.38-21.89L201.38-21.89Q201.47-24.26 201.47-26.02L201.47-26.02L201.47-26.02Q201.47-27.78 200.96-28.93L200.96-28.93L200.96-28.93Q200.45-30.08 199.01-30.08L199.01-30.08L199.01-30.08Q197.57-30.08 196.61-29.18L196.61-29.18L196.61-29.18Q195.65-28.29 194.88-26.56ZM258.62-26.56L258.62-26.56L258.62-26.56Q258.62 0.70 229.06 0.70L229.06 0.70L229.06 0.70Q224.32 0.70 216.51-0.45L216.51-0.45L223.68-38.27L223.68-38.27Q224.19-40.83 224.51-42.30L224.51-42.30L224.51-42.30Q234.24-43.01 238.56-43.01L238.56-43.01L238.56-43.01Q242.88-43.01 246.85-42.11L246.85-42.11L246.85-42.11Q250.82-41.22 253.44-39.23L253.44-39.23L253.44-39.23Q258.62-35.33 258.62-26.56ZM245.44-28.93L245.44-28.93L245.44-28.93Q245.44-38.46 238.59-38.46L238.59-38.46L237.95-38.46L237.95-38.46Q237.63-38.46 237.31-38.40L237.31-38.40L230.72-4.03L230.72-4.03Q230.98-3.90 231.23-3.90L231.23-3.90L231.74-3.90L231.74-3.90Q234.11-3.90 236.58-5.38L236.58-5.38L236.58-5.38Q239.04-6.85 240.96-9.86L240.96-9.86L240.96-9.86Q245.44-16.83 245.44-28.93ZM275.84 1.28L275.84 1.28L275.84 1.28Q261.76 1.28 261.76-11.97L261.76-11.97L261.76-11.97Q261.76-21.38 266.94-27.46L266.94-27.46L266.94-27.46Q272.45-33.92 281.98-33.92L281.98-33.92L281.98-33.92Q288.90-33.92 292.42-30.72L292.42-30.72L292.42-30.72Q295.94-27.52 295.94-20.80L295.94-20.80L295.94-20.80Q295.94-10.56 290.43-4.61L290.43-4.61L290.43-4.61Q285.06 1.28 275.84 1.28ZM277.50-26.56L277.50-26.56L277.50-26.56Q276.74-24.83 276.13-22.24L276.13-22.24L276.13-22.24Q275.52-19.65 274.75-15.55L274.75-15.55L274.75-15.55Q273.98-11.46 273.98-6.40L273.98-6.40L273.98-6.40Q273.98-4.74 274.53-3.65L274.53-3.65L274.53-3.65Q275.07-2.56 276.54-2.56L276.54-2.56L276.54-2.56Q278.02-2.56 278.94-3.26L278.94-3.26L278.94-3.26Q279.87-3.97 280.58-5.63L280.58-5.63L280.58-5.63Q281.86-8.58 282.88-14.05L282.88-14.05L282.88-14.05Q283.90-19.52 284-21.89L284-21.89L284-21.89Q284.10-24.26 284.10-26.02L284.10-26.02L284.10-26.02Q284.10-27.78 283.58-28.93L283.58-28.93L283.58-28.93Q283.07-30.08 281.63-30.08L281.63-30.08L281.63-30.08Q280.19-30.08 279.23-29.18L279.23-29.18L279.23-29.18Q278.27-28.29 277.50-26.56Z" fill="#444"></path></g></g><style>text {
  font-size: 64px;
  font-family: Arial Black;
  dominant-baseline: central;
  text-anchor: middle;
}</style></svg>